<svg xmlns="http://www.w3.org/2000/svg" xmlns:xlink="http://www.w3.org/1999/xlink" width="1440" zoomAndPan="magnify" viewBox="0 0 1080 675.000002" height="900" preserveAspectRatio="xMidYMid meet" version="1.0"><defs><clipPath id="239ac7bfec"><path d="M 0.796875 0 L 1079.199219 0 L 1079.199219 674 L 0.796875 674 Z M 0.796875 0 " clip-rule="nonzero"/></clipPath><clipPath id="6d6d53f64a"><path d="M 390.371094 199.503906 L 630.765625 199.503906 L 630.765625 469 L 390.371094 469 Z M 390.371094 199.503906 " clip-rule="nonzero"/></clipPath></defs><g clip-path="url(#239ac7bfec)"><path fill="#ffffff" d="M 0.796875 0 L 1079.199219 0 L 1079.199219 674 L 0.796875 674 Z M 0.796875 0 " fill-opacity="1" fill-rule="nonzero"/><path fill="#ffffff" d="M 0.796875 0 L 1079.199219 0 L 1079.199219 674 L 0.796875 674 Z M 0.796875 0 " fill-opacity="1" fill-rule="nonzero"/></g><g clip-path="url(#6d6d53f64a)"><path fill="#000000" d="M 525.011719 468.875 C 450.769531 468.875 390.371094 408.507812 390.371094 334.300781 C 390.371094 260.101562 450.769531 199.734375 525.011719 199.734375 C 562.429688 199.734375 598.46875 215.492188 623.878906 242.960938 L 630.765625 250.402344 L 578.632812 298.59375 L 571.738281 291.148438 C 559.550781 277.96875 542.953125 270.710938 525.011719 270.710938 C 489.925781 270.710938 461.382812 299.242188 461.382812 334.300781 C 461.382812 353.269531 469.804688 371.121094 484.484375 383.28125 L 471.53125 398.898438 C 452.191406 382.871094 441.097656 359.328125 441.097656 334.300781 C 441.097656 288.054688 478.742188 250.433594 525.011719 250.433594 C 545.253906 250.433594 564.195312 257.433594 579.3125 270.335938 L 601.761719 249.589844 C 580.84375 230.6875 553.398438 220.015625 525.011719 220.015625 C 461.960938 220.015625 410.664062 271.28125 410.664062 334.300781 C 410.664062 397.324219 461.960938 448.59375 525.011719 448.59375 C 549.082031 448.59375 572.121094 441.199219 591.628906 427.203125 C 596.855469 423.457031 601.804688 419.222656 606.359375 414.617188 L 620.792969 428.863281 C 615.445312 434.28125 609.609375 439.265625 603.453125 443.675781 C 580.484375 460.160156 553.359375 468.875 525.011719 468.875 " fill-opacity="1" fill-rule="nonzero"/></g></svg>