<svg xmlns="http://www.w3.org/2000/svg" xmlns:xlink="http://www.w3.org/1999/xlink" width="1440" zoomAndPan="magnify" viewBox="0 0 1080 675.000002" height="900" preserveAspectRatio="xMidYMid meet" version="1.0"><defs><clipPath id="37a834960f"><path d="M 0.796875 0 L 1079.199219 0 L 1079.199219 674 L 0.796875 674 Z M 0.796875 0 " clip-rule="nonzero"/></clipPath><clipPath id="1e7520cc8e"><path d="M 512 181.832031 L 635 181.832031 L 635 253 L 512 253 Z M 512 181.832031 " clip-rule="nonzero"/></clipPath><clipPath id="96e5c82fd8"><path d="M 395.765625 217 L 513 217 L 513 416 L 395.765625 416 Z M 395.765625 217 " clip-rule="nonzero"/></clipPath><clipPath id="189208760c"><path d="M 512.480469 298.546875 L 665.363281 298.546875 L 665.363281 451.429688 L 512.480469 451.429688 Z M 512.480469 298.546875 " clip-rule="nonzero"/></clipPath></defs><g clip-path="url(#37a834960f)"><path fill="#ffffff" d="M 0.796875 0 L 1079.199219 0 L 1079.199219 674 L 0.796875 674 Z M 0.796875 0 " fill-opacity="1" fill-rule="nonzero"/><path fill="#ffffff" d="M 0.796875 0 L 1079.199219 0 L 1079.199219 674 L 0.796875 674 Z M 0.796875 0 " fill-opacity="1" fill-rule="nonzero"/></g><g clip-path="url(#1e7520cc8e)"><path fill="#000000" d="M 589.96875 221.3125 C 599.164062 230.507812 606.886719 240.828125 613.039062 252.113281 L 634.441406 230.710938 C 631.746094 227.460938 628.894531 224.324219 625.882812 221.3125 C 613.507812 208.9375 599.09375 199.222656 583.039062 192.429688 C 566.410156 185.398438 548.753906 181.832031 530.566406 181.832031 C 524.511719 181.832031 518.519531 182.226562 512.609375 183.011719 C 524.472656 184.589844 536.027344 187.738281 547.125 192.429688 C 563.179688 199.222656 577.59375 208.9375 589.96875 221.3125 " fill-opacity="1" fill-rule="nonzero"/></g><g clip-path="url(#96e5c82fd8)"><path fill="#000000" d="M 431.675781 316.628906 C 431.675781 268.234375 466.625 227.851562 512.609375 219.382812 C 506.78125 218.308594 500.78125 217.742188 494.652344 217.742188 C 440.125 217.742188 395.765625 262.105469 395.765625 316.628906 C 395.765625 371.15625 440.125 415.519531 494.652344 415.519531 C 500.78125 415.519531 506.78125 414.953125 512.609375 413.878906 C 466.625 405.410156 431.675781 365.027344 431.675781 316.628906 " fill-opacity="1" fill-rule="nonzero"/></g><g clip-path="url(#189208760c)"><path fill="#000000" d="M 664.179688 298.671875 L 566.476562 298.671875 L 530.566406 334.585938 L 628.269531 334.585938 C 626.691406 346.453125 623.542969 358.007812 618.851562 369.105469 C 612.058594 385.160156 602.34375 399.574219 589.96875 411.949219 C 577.59375 424.324219 563.179688 434.039062 547.125 440.832031 C 536.027344 445.523438 524.472656 448.671875 512.609375 450.25 C 518.519531 451.035156 524.511719 451.429688 530.566406 451.429688 C 548.753906 451.429688 566.410156 447.863281 583.039062 440.832031 C 599.09375 434.039062 613.507812 424.324219 625.882812 411.949219 C 638.257812 399.574219 647.972656 385.160156 654.765625 369.105469 C 661.796875 352.476562 665.363281 334.820312 665.363281 316.628906 C 665.363281 310.578125 664.96875 304.589844 664.179688 298.671875 " fill-opacity="1" fill-rule="nonzero"/></g></svg>