<svg width="345" height="433" viewBox="0 0 345 433" fill="none" xmlns="http://www.w3.org/2000/svg">
<g clip-path="url(#clip0_27_774)">
<path d="M74.6299 274.157C87.9905 336.015 127.141 394.203 196.96 398.298C259.309 401.927 299.694 368.758 326.253 315.842C326.597 315.152 327.083 315.031 327.731 315.436L342.974 325.472C343.581 325.898 343.784 326.688 343.44 327.337C308.925 393.594 257.649 432.988 180.461 431.528C174.571 431.407 166.311 430.373 155.765 428.386C78.5571 413.828 20.621 349.274 6.06616 272.941C-12.0313 177.934 16.9368 74.473 105.46 24.3341C165.32 -9.58527 225.017 -3.64483 284.836 24.922C287.143 26.0168 289.653 26.2601 292.103 26.3007C292.751 26.3007 293.358 26.1588 293.905 25.8344C302.609 20.6644 309.573 16.7919 309.006 5.0935C308.925 3.45126 310.221 2.09287 311.84 2.0726L320.828 2.03205C323.196 2.03205 324.33 3.20797 324.269 5.58009C323.156 50.0016 326.273 94.1191 333.662 137.912C333.905 139.291 332.954 140.609 331.577 140.832L319.532 142.798C318.885 142.92 318.257 142.494 318.136 141.866C304.532 81.711 271.475 25.4289 201.433 26.321C128.153 27.2739 84.873 95.2544 73.0915 160.802" stroke="white" stroke-width="0.75" stroke-miterlimit="10"/>
</g>
<defs>
<clipPath id="clip0_27_774">
<rect width="344.195" height="431.97" fill="white" transform="translate(0.175415 0.369629)"/>
</clipPath>
</defs>
</svg>
