<svg width="282" height="361" viewBox="0 0 282 361" fill="none" xmlns="http://www.w3.org/2000/svg">
<path d="M50.2681 137.111C50.2681 111.098 50.2507 85.086 50.2333 59.0737C50.2333 43.4489 47.5536 30.6602 33.3199 22.6042C24.2541 17.4713 14.388 15.2616 3.70394 15.975C2.6425 16.0446 1.75506 15.2442 1.70286 14.1828L1.28524 3.81268C1.21564 2.14232 2.01607 1.30715 3.70394 1.30715L273.501 1.23755C274.65 1.23755 275.59 2.12493 275.694 3.2559C276.355 11.4859 276.947 19.7159 277.434 27.9807C278.478 45.3454 281.419 65.8943 280.862 85.347C280.862 85.9212 280.392 86.3736 279.818 86.4084L270.161 86.739C269.325 86.7738 268.838 86.3736 268.664 85.5732C262.696 58.0297 254.135 32.6437 222.657 26.9193C209.397 24.5182 192.38 23.4394 176.841 23.161C152.758 22.7608 128.797 22.6564 104.976 22.9C103.862 22.9 102.975 23.8048 102.975 24.9183L102.836 156.72C102.836 157.242 103.253 157.66 103.793 157.677C131.877 157.764 160.084 157.677 188.43 157.399C216.88 157.138 224.049 130.916 223.892 107.41C223.892 106.801 224.362 106.313 224.971 106.279L235.15 105.791C235.933 105.757 236.316 106.139 236.334 106.922C236.577 146.559 236.612 186.143 236.455 225.692C236.455 227.397 236.264 229.816 235.916 232.913C235.864 233.452 235.411 233.852 234.855 233.852H225.128C224.606 233.852 224.171 233.469 224.084 232.947C221.595 213.825 220.186 191.71 199.514 184.211C194.833 182.506 185.941 181.706 172.804 181.775C150.044 181.915 127.249 182.071 104.489 182.193C103.914 182.193 103.584 182.489 103.514 183.046C102.609 188.613 103.218 195.208 103.166 199.366C102.818 228.928 102.731 258.49 102.87 288.052C103.044 326.035 109.761 343.052 150.914 346.184C151.836 346.253 152.584 347.036 152.584 347.958V358.677C152.584 359.199 152.167 359.616 151.627 359.634L2.34667 359.808C1.84205 359.808 1.56364 359.547 1.54624 359.042L1.02423 347.071C1.02423 346.654 1.33744 346.271 1.75506 346.219C21.557 344.165 40.2454 342.234 47.7451 321.442C49.4155 316.778 50.2681 308.201 50.2681 295.655C50.2681 268.025 50.303 240.394 50.303 212.764" stroke="white" stroke-width="0.75" stroke-miterlimit="10"/>
</svg>
