<svg width="924" height="951" viewBox="0 0 924 951" fill="none" xmlns="http://www.w3.org/2000/svg">
<g clip-path="url(#clip0_19_33)">
<path d="M204.17 702.148C263.782 821.319 381.793 903.891 521.064 891.835C566.111 887.94 639.114 864.807 656.42 817.542C659.474 809.165 661.021 795.367 661.06 776.07C661.177 716.181 661.236 656.331 661.099 596.442C661.06 571.547 660.59 540.194 646.788 519.017C623.002 482.477 582.947 472.985 539.271 471.85C537.587 471.811 536.726 470.93 536.628 469.247L535.12 435.388C535.042 433.842 535.747 433.079 537.294 433.079L915.758 432.335C919.321 432.296 922.238 435.173 922.336 438.735L923.002 468.444C923.041 469.736 922.375 470.46 921.024 470.499C836.627 472.75 796.847 505.395 795.809 591.373C794.38 708.861 794.223 792.471 795.3 842.319C795.476 850.598 798.198 854.004 789.74 859.268C664.682 937.28 520.418 965.15 373.433 942.271C195.928 914.558 56.6757 782.9 16.5035 607.95C-36.6092 376.752 45.5363 129.622 278.132 33.7805C375.391 -6.26289 488.507 -8.61147 588.644 21.1764C615.68 29.2594 649.02 40.4739 688.566 54.9177C708.319 62.1592 722.806 50.6902 733.397 35.4049C739.055 27.2436 740.23 16.1074 744.165 5.94974C744.674 4.65802 745.927 3.81645 747.297 3.85559L771.416 4.22745C774.137 4.26659 776.35 6.53689 776.31 9.25733C776.095 67.8936 774.509 130.914 779.443 185.969C782.673 222 787.685 257.796 794.517 293.318C795.026 295.863 793.479 298.348 790.954 299.014L767.501 305.296C766.032 305.668 764.486 304.885 763.977 303.456C759.004 289.933 754.423 276.467 750.195 263.022C723.687 178.571 667.09 107.663 582.243 77.1901C505.677 49.7312 432.576 51.9037 362.881 83.727C256.44 132.284 190.994 229.339 163.958 338.431" stroke="white" stroke-miterlimit="10"/>
</g>
<defs>
<clipPath id="clip0_19_33">
<rect width="924" height="951" fill="white"/>
</clipPath>
</defs>
</svg>
